<?xml version="1.0" encoding="UTF-8"?>
<svg width="40px" height="40px" viewBox="0 0 40 40" version="1.1" xmlns="http://www.w3.org/2000/svg" xmlns:xlink="http://www.w3.org/1999/xlink">
    <title>icon-freshdesk</title>
    <defs>
        <rect id="path-1" x="0" y="0" width="40" height="40"></rect>
        <path d="M40,0 C40,1.51942884 38.8246309,2.76433551 37.3335119,2.87510091 L37.3333333,2.88311688 L33.9393939,2.88311688 L33.9390909,2.90611688 L19.5309739,2.9062105 C19.2448346,2.89088085 18.9566655,2.88311688 18.6666667,2.88311688 C9.96399788,2.88311688 2.90909091,9.87503362 2.90909091,18.5 C2.90909091,26.4952285 8.97140212,33.0871705 16.7886054,34.0076338 C10.2330576,32.5563643 5.33333333,26.7559835 5.33333333,19.8214286 C5.33333333,11.8978331 11.730373,5.455006 19.6851958,5.28899626 L20,5.28571429 L37.3333333,5.28571429 L37.3333333,18.9805195 C37.069982,28.9757408 28.8138496,37 18.6666667,37 C8.35735134,37 0,28.7172679 0,18.5 C0,8.44350844 8.09640246,0.261148915 18.1814674,0.00612801697 L18.1818182,0 L40,0 Z" id="path-3"></path>
        <linearGradient x1="50%" y1="6.85005553%" x2="50%" y2="61.1465649%" id="linearGradient-5">
            <stop stop-color="#4BBF1A" offset="0%"></stop>
            <stop stop-color="#008866" offset="100%"></stop>
        </linearGradient>
        <linearGradient x1="50%" y1="0%" x2="50%" y2="56.3121969%" id="linearGradient-6">
            <stop stop-color="#00AC30" offset="0%"></stop>
            <stop stop-color="#00845E" offset="100%"></stop>
        </linearGradient>
        <linearGradient x1="50%" y1="22.8203776%" x2="53.4153213%" y2="59.8600041%" id="linearGradient-7">
            <stop stop-color="#009640" offset="0%"></stop>
            <stop stop-color="#009640" offset="46.525477%"></stop>
            <stop stop-color="#007F55" offset="68.9620466%"></stop>
            <stop stop-color="#007F55" offset="100%"></stop>
        </linearGradient>
    </defs>
    <g id="tab-apps" stroke="none" stroke-width="1" fill="none" fill-rule="evenodd">
        <g id="tab-apps-1160ðŸš©" transform="translate(-318.000000, -715.000000)">
            <g id="2" transform="translate(72.000000, 32.000000)">
                <g id="icon-freshdesk" transform="translate(246.000000, 683.000000)">
                    <mask id="mask-2" fill="white">
                        <use xlink:href="#path-1"></use>
                    </mask>
                    <use id="è’™ç‰ˆ" fill="#FFFFFF" opacity="0" xlink:href="#path-1"></use>
                    <g id="ç¼–ç»„-9" mask="url(#mask-2)">
                        <g transform="translate(0.000000, 2.000000)">
                            <g id="æ¤­åœ†å½¢">
                                <mask id="mask-4" fill="white">
                                    <use xlink:href="#path-3"></use>
                                </mask>
                                <use id="è’™ç‰ˆ" fill="#2F8D6F" xlink:href="#path-3"></use>
                                <ellipse fill="#4CA15A" mask="url(#mask-4)" cx="15.3939394" cy="2.04220779" rx="31.1515152" ry="30.8733766"></ellipse>
                                <ellipse fill="#66B242" mask="url(#mask-4)" cx="13.4545455" cy="-8.0487013" rx="31.1515152" ry="30.8733766"></ellipse>
                                <ellipse fill="#7DC124" mask="url(#mask-4)" cx="15.3939394" cy="-17.8993506" rx="31.1515152" ry="30.8733766"></ellipse>
                                <ellipse fill="url(#linearGradient-5)" opacity="0.5" mask="url(#mask-4)" cx="45.3333333" cy="30.9935065" rx="36.3636364" ry="36.038961"></ellipse>
                                <ellipse id="æ¤­åœ†å½¢å¤‡ä»½-11" fill="url(#linearGradient-6)" opacity="0.5" mask="url(#mask-4)" cx="48.4773508" cy="31.7935467" rx="28.8559825" ry="28.5983398"></ellipse>
                                <ellipse id="æ¤­åœ†å½¢å¤‡ä»½-12" fill="url(#linearGradient-7)" opacity="0.5" mask="url(#mask-4)" cx="53.3058419" cy="29.7426697" rx="24.0274914" ry="23.8129602"></ellipse>
                                <ellipse fill="#91CD00" mask="url(#mask-4)" cx="16.1212121" cy="-17.4188312" rx="20.7272727" ry="20.5422078"></ellipse>
                            </g>
                            <g id="ç¼–ç»„-8" transform="translate(11.878788, 11.772726)">
                                <path d="M15.4021859,2.43332429 L15.5204352,2.42591159 L15.7157785,2.4208806 C17.7471707,2.4208806 19.3939394,4.04586734 19.3939394,6.05039008 C19.3939394,7.98250482 17.8639921,9.56200778 15.9343491,9.67359732 L15.8220051,9.74087208 C16.0423538,8.91245417 16.0962494,8.0264913 15.9517715,7.12633712 C15.3932359,3.64661392 12.0817774,1.27252183 8.55540623,1.82364238 C5.0290394,2.37479054 2.62312401,5.64244796 3.18163236,9.12217548 C3.47867724,10.9727897 4.55436166,12.5106862 6.02691107,13.4621582 C5.39101294,13.9847969 4.5718044,14.2992753 3.67816092,14.2992753 C1.64676874,14.2992753 0,12.6742885 0,10.6697658 C0,9.64870732 0.42727931,8.72612526 1.11502557,8.06662553 C1.19859389,4.15220289 4.10890967,0.736897282 8.1663409,0.102747223 C10.9208158,-0.327737152 13.5738877,0.621990301 15.4021859,2.43332429 Z" id="å½¢çŠ¶ç»“åˆ" fill="#9FEC78"></path>
                                <path d="M16.4664993,6.18834715 C16.7125563,6.17925843 16.9194916,6.36872081 16.9287022,6.61152321 C17.0362596,9.44688077 16.4799336,11.6436199 15.2404608,13.1883335 C15.0876117,13.3788242 14.8072098,13.4109777 14.6141657,13.2601504 C14.4211215,13.109323 14.388537,12.8326301 14.5413861,12.6421393 C15.632729,11.282035 16.137905,9.2872697 16.0376508,6.64443639 C16.0284403,6.40163398 16.2204423,6.19743588 16.4664993,6.18834715 Z" id="è·¯å¾„-2" fill="#99E87D" fill-rule="nonzero"></path>
                                <path d="M13.9380135,12.4503781 L13.9454643,12.450329 C14.4891104,12.4467482 14.9327255,12.8845576 14.9363063,13.4282037 C14.9363348,13.4325301 14.9363348,13.4368566 14.9363062,13.441183 L14.9304417,14.3298983 C14.9268199,14.878744 14.4827817,15.3227768 13.9339359,15.3263918 L13.9264851,15.3264409 C13.382839,15.3300217 12.9392239,14.8922123 12.9356431,14.3485662 C12.9356146,14.3442398 12.9356146,14.3399133 12.9356432,14.3355869 L12.9415077,13.4468717 C12.9451295,12.8980259 13.3891677,12.4539932 13.9380135,12.4503781 Z" id="çŸ©å½¢" fill="#99E87D" transform="translate(13.935975, 13.888385) rotate(41.000000) translate(-13.935975, -13.888385) "></path>
                                <path d="M0.955650254,8.69497587 C0.400552502,10.0663463 0.400552502,11.2213162 0.955650254,12.1598854 C1.51074801,13.0984547 2.32403811,13.6746212 3.39552057,13.888385 C2.56212044,13.2028163 1.95124445,12.4739382 1.56289262,11.7017509 C1.17454079,10.9295636 0.972126669,9.92730524 0.955650254,8.69497587 Z" id="è·¯å¾„-3" fill="#FFFFFF"></path>
                                <path d="M16.2433746,2.81226248 C17.3131682,3.07748182 18.0603137,3.75357886 18.484811,4.84055359 C18.9093084,5.92752832 18.7388617,7.02209589 17.9734709,8.1242563 C18.1003316,6.9750298 18.0667217,6.05015158 17.8726412,5.34962163 C17.6785608,4.64909168 17.1354719,3.8033053 16.2433746,2.81226248 Z" id="è·¯å¾„-4" fill="#FFFFFF"></path>
                                <path d="M3.52948737,3.0080863 C5.00208545,1.10934301 6.89449779,0.159971364 9.20672439,0.159971364 C11.518951,0.159971364 13.2415266,0.726328784 14.3744512,1.85904362 C12.589879,1.02489478 10.8287394,0.680459964 9.0910323,0.825739165 C7.35332524,0.971018366 5.49947693,1.69846741 3.52948737,3.0080863 Z" id="è·¯å¾„-5" fill="#FFFFFF"></path>
                            </g>
                        </g>
                    </g>
                </g>
            </g>
        </g>
    </g>
</svg>